<svg xmlns="http://www.w3.org/2000/svg" viewBox="0 0 800 480" role="img" aria-labelledby="title desc">
  <title id="title">Stylized earth map</title>
  <desc id="desc">A quiet globe illustration for a visitor map.</desc>
  <defs>
    <radialGradient id="ocean" cx="38%" cy="28%" r="68%">
      <stop offset="0" stop-color="#d9eef4"/>
      <stop offset="0.62" stop-color="#8bb9c7"/>
      <stop offset="1" stop-color="#4c7f91"/>
    </radialGradient>
    <linearGradient id="land" x1="0" x2="1" y1="0" y2="1">
      <stop offset="0" stop-color="#edf3e8"/>
      <stop offset="1" stop-color="#b5c9b0"/>
    </linearGradient>
    <clipPath id="globeClip">
      <circle cx="400" cy="240" r="205"/>
    </clipPath>
  </defs>
  <rect width="800" height="480" fill="#fbfbfa"/>
  <circle cx="400" cy="240" r="205" fill="url(#ocean)"/>
  <g clip-path="url(#globeClip)">
    <path d="M170 220c32-76 92-118 167-127 40-5 73 3 94 20 15 12 15 31-3 39-25 12-65-4-87 13-19 15-3 48-27 62-20 12-48-2-68 12-26 18-19 57-47 67-22 8-45-14-44-43 0-15 6-30 15-43Z" fill="url(#land)" opacity="0.96"/>
    <path d="M385 205c18-34 56-47 89-34 27 11 48 35 80 39 24 3 42-7 61-2 35 9 52 48 35 78-16 28-58 36-94 27-27-7-43-26-68-28-27-2-48 17-75 9-31-10-45-53-28-89Z" fill="url(#land)" opacity="0.96"/>
    <path d="M493 318c23-12 51-8 72 10 19 17 26 42 17 63-9 22-32 35-55 30-24-5-41-27-45-52-3-20 1-41 11-51Z" fill="url(#land)" opacity="0.96"/>
    <path d="M281 334c24 1 43 16 43 35 0 20-20 36-45 35-28-1-48-21-43-44 4-17 22-27 45-26Z" fill="url(#land)" opacity="0.86"/>
    <path d="M626 126c24 2 43 19 43 39 0 17-14 31-35 35-24 5-50-5-60-25-9-18 0-37 20-45 10-4 20-5 32-4Z" fill="url(#land)" opacity="0.78"/>
    <path d="M208 141c15-16 43-16 63-1 18 14 22 36 9 51-14 17-43 18-64 2-20-15-24-37-8-52Z" fill="url(#land)" opacity="0.7"/>
  </g>
  <g fill="none" stroke="#ffffff" stroke-opacity="0.42" stroke-width="1.2">
    <circle cx="400" cy="240" r="205"/>
    <ellipse cx="400" cy="240" rx="142" ry="205"/>
    <ellipse cx="400" cy="240" rx="72" ry="205"/>
    <path d="M195 240h410"/>
    <path d="M222 170c92 25 263 25 356 0"/>
    <path d="M222 310c92-25 263-25 356 0"/>
  </g>
  <circle cx="400" cy="240" r="205" fill="none" stroke="#d9dee2" stroke-width="1.5"/>
</svg>